<svg xmlns="http://www.w3.org/2000/svg" viewBox="0 0 256 256" role="img" aria-labelledby="title desc"><title id="title">Alchemy Materials Auction House guide icon</title><desc id="desc">Fantasy game-style icon for the Alchemy Materials Auction House guide.</desc><defs><linearGradient id="bg" x1="0" y1="0" x2="1" y2="1"><stop stop-color="#111a25"/><stop offset=".55" stop-color="#0a1119"/><stop offset="1" stop-color="#060a10"/></linearGradient><radialGradient id="glow" cx="50%" cy="42%" r="62%"><stop stop-color="#58d48d" stop-opacity=".35"/><stop offset=".62" stop-color="#72e3ff" stop-opacity=".12"/><stop offset="1" stop-color="#000" stop-opacity="0"/></radialGradient><linearGradient id="rim" x1="0" y1="0" x2="1" y2="1"><stop stop-color="#58d48d"/><stop offset=".55" stop-color="#72e3ff"/><stop offset="1" stop-color="#58d48d"/></linearGradient><filter id="shadow" x="-30%" y="-30%" width="160%" height="160%"><feDropShadow dx="0" dy="8" stdDeviation="7" flood-color="#000" flood-opacity=".7"/></filter><filter id="soft" x="-30%" y="-30%" width="160%" height="160%"><feGaussianBlur stdDeviation="6"/></filter></defs><rect x="7" y="7" width="242" height="242" rx="44" fill="#05080c" stroke="#263342" stroke-width="5"/><rect x="14" y="14" width="228" height="228" rx="38" fill="url(#bg)" stroke="url(#rim)" stroke-width="5"/><rect x="20" y="20" width="216" height="216" rx="33" fill="url(#glow)"/><ellipse cx="128" cy="182" rx="76" ry="30" fill="#58d48d" opacity=".16" filter="url(#soft)"/><g filter="url(#shadow)">
      <path d="M108 45 H148 M118 45 V88 L76 162 Q69 178 82 190 Q95 203 113 203 H143 Q161 203 174 190 Q187 178 180 162 L138 88 V45" fill="none" stroke="#eafcff" stroke-width="10" stroke-linecap="round" stroke-linejoin="round"/><path d="M86 158 Q128 132 170 158 L181 177 Q183 191 164 199 H93 Q75 191 78 177 Z" fill="#41d88a" opacity=".9"/><circle cx="111" cy="170" r="7" fill="#e7fff1"/><circle cx="142" cy="153" r="5" fill="#c7fff1"/><circle cx="150" cy="181" r="4" fill="#ffffff"/><path d="M165 77 Q197 63 204 91 Q184 108 160 94 Q175 84 165 77 Z" fill="#8ee08e" stroke="#eaffea" stroke-width="6"/>
    </g><path d="M42 34 H177" stroke="#ffffff" stroke-opacity=".13" stroke-width="4" stroke-linecap="round"/><circle cx="213" cy="43" r="4" fill="#72e3ff" opacity=".85"/></svg>