<svg xmlns="http://www.w3.org/2000/svg" viewBox="0 0 256 256" role="img" aria-labelledby="title desc"><title id="title">Blacksmithing Auction House guide icon</title><desc id="desc">Fantasy game-style icon for the Blacksmithing Auction House guide.</desc><defs><linearGradient id="bg" x1="0" y1="0" x2="1" y2="1"><stop stop-color="#111a25"/><stop offset=".55" stop-color="#0a1119"/><stop offset="1" stop-color="#060a10"/></linearGradient><radialGradient id="glow" cx="50%" cy="42%" r="62%"><stop stop-color="#ff9c59" stop-opacity=".35"/><stop offset=".62" stop-color="#f0c15a" stop-opacity=".12"/><stop offset="1" stop-color="#000" stop-opacity="0"/></radialGradient><linearGradient id="rim" x1="0" y1="0" x2="1" y2="1"><stop stop-color="#ff9c59"/><stop offset=".55" stop-color="#f0c15a"/><stop offset="1" stop-color="#ff9c59"/></linearGradient><filter id="shadow" x="-30%" y="-30%" width="160%" height="160%"><feDropShadow dx="0" dy="8" stdDeviation="7" flood-color="#000" flood-opacity=".7"/></filter><filter id="soft" x="-30%" y="-30%" width="160%" height="160%"><feGaussianBlur stdDeviation="6"/></filter></defs><rect x="7" y="7" width="242" height="242" rx="44" fill="#05080c" stroke="#263342" stroke-width="5"/><rect x="14" y="14" width="228" height="228" rx="38" fill="url(#bg)" stroke="url(#rim)" stroke-width="5"/><rect x="20" y="20" width="216" height="216" rx="33" fill="url(#glow)"/><ellipse cx="128" cy="182" rx="76" ry="30" fill="#ff9c59" opacity=".16" filter="url(#soft)"/><g filter="url(#shadow)">
      <path d="M60 151 H189 L177 178 H78 Z" fill="#93a5b3" stroke="#f4fbff" stroke-width="9"/><path d="M89 115 H160 Q176 115 186 128 L199 144 H57 L76 125 Q82 115 89 115 Z" fill="#6d7f8c" stroke="#eef7ff" stroke-width="9"/><path d="M99 86 H158 L168 107 H88 Z" fill="#ffbf65" stroke="#fff2c7" stroke-width="7"/><path d="M178 62 L198 82 L142 138 L122 118 Z" fill="#d7e4ec" stroke="#ffffff" stroke-width="8"/><path d="M121 119 L92 148" stroke="#7b421f" stroke-width="16" stroke-linecap="round"/><circle cx="103" cy="70" r="5" fill="#ffd56f"/><circle cx="75" cy="90" r="4" fill="#ff8e4c"/><circle cx="185" cy="112" r="4" fill="#ffd56f"/>
    </g><path d="M42 34 H177" stroke="#ffffff" stroke-opacity=".13" stroke-width="4" stroke-linecap="round"/><circle cx="213" cy="43" r="4" fill="#f0c15a" opacity=".85"/></svg>