<svg xmlns="http://www.w3.org/2000/svg" viewBox="0 0 256 256" role="img" aria-labelledby="title desc"><title id="title">Consumable + Misc Recipes Auction House guide icon</title><desc id="desc">Fantasy game-style icon for the Consumable + Misc Recipes Auction House guide.</desc><defs><linearGradient id="bg" x1="0" y1="0" x2="1" y2="1"><stop stop-color="#111a25"/><stop offset=".55" stop-color="#0a1119"/><stop offset="1" stop-color="#060a10"/></linearGradient><radialGradient id="glow" cx="50%" cy="42%" r="62%"><stop stop-color="#ff9a5e" stop-opacity=".35"/><stop offset=".62" stop-color="#8ee08e" stop-opacity=".12"/><stop offset="1" stop-color="#000" stop-opacity="0"/></radialGradient><linearGradient id="rim" x1="0" y1="0" x2="1" y2="1"><stop stop-color="#ff9a5e"/><stop offset=".55" stop-color="#8ee08e"/><stop offset="1" stop-color="#ff9a5e"/></linearGradient><filter id="shadow" x="-30%" y="-30%" width="160%" height="160%"><feDropShadow dx="0" dy="8" stdDeviation="7" flood-color="#000" flood-opacity=".7"/></filter><filter id="soft" x="-30%" y="-30%" width="160%" height="160%"><feGaussianBlur stdDeviation="6"/></filter></defs><rect x="7" y="7" width="242" height="242" rx="44" fill="#05080c" stroke="#263342" stroke-width="5"/><rect x="14" y="14" width="228" height="228" rx="38" fill="url(#bg)" stroke="url(#rim)" stroke-width="5"/><rect x="20" y="20" width="216" height="216" rx="33" fill="url(#glow)"/><ellipse cx="128" cy="182" rx="76" ry="30" fill="#ff9a5e" opacity=".16" filter="url(#soft)"/><g filter="url(#shadow)">
      <path d="M58 60 H169 Q186 60 186 77 V193 H58 Z" fill="#d7c28b" stroke="#fff1c5" stroke-width="9"/><path d="M82 86 H151 M82 111 H142 M82 136 H155" stroke="#76582f" stroke-width="7" stroke-linecap="round"/><path d="M150 89 H181 M160 89 V121 L137 164 Q131 176 141 185 Q150 193 163 193 H178 Q191 193 200 185 Q210 176 204 164 L181 121 V89" fill="none" stroke="#f5fbff" stroke-width="8" stroke-linecap="round" stroke-linejoin="round"/><path d="M143 163 Q171 146 199 163 L205 177 Q202 191 184 193 H158 Q140 190 137 177 Z" fill="#ff8d58" opacity=".9"/><path d="M105 166 Q85 147 70 162 Q80 187 105 180 Q91 173 105 166 Z" fill="#75d77d" stroke="#edffef" stroke-width="6"/>
    </g><path d="M42 34 H177" stroke="#ffffff" stroke-opacity=".13" stroke-width="4" stroke-linecap="round"/><circle cx="213" cy="43" r="4" fill="#8ee08e" opacity=".85"/></svg>