<svg xmlns="http://www.w3.org/2000/svg" viewBox="0 0 256 256" role="img" aria-labelledby="title desc"><title id="title">Cross-Profession Materials Auction House guide icon</title><desc id="desc">Fantasy game-style icon for the Cross-Profession Materials Auction House guide.</desc><defs><linearGradient id="bg" x1="0" y1="0" x2="1" y2="1"><stop stop-color="#111a25"/><stop offset=".55" stop-color="#0a1119"/><stop offset="1" stop-color="#060a10"/></linearGradient><radialGradient id="glow" cx="50%" cy="42%" r="62%"><stop stop-color="#72e3ff" stop-opacity=".35"/><stop offset=".62" stop-color="#caa7ff" stop-opacity=".12"/><stop offset="1" stop-color="#000" stop-opacity="0"/></radialGradient><linearGradient id="rim" x1="0" y1="0" x2="1" y2="1"><stop stop-color="#72e3ff"/><stop offset=".55" stop-color="#caa7ff"/><stop offset="1" stop-color="#72e3ff"/></linearGradient><filter id="shadow" x="-30%" y="-30%" width="160%" height="160%"><feDropShadow dx="0" dy="8" stdDeviation="7" flood-color="#000" flood-opacity=".7"/></filter><filter id="soft" x="-30%" y="-30%" width="160%" height="160%"><feGaussianBlur stdDeviation="6"/></filter></defs><rect x="7" y="7" width="242" height="242" rx="44" fill="#05080c" stroke="#263342" stroke-width="5"/><rect x="14" y="14" width="228" height="228" rx="38" fill="url(#bg)" stroke="url(#rim)" stroke-width="5"/><rect x="20" y="20" width="216" height="216" rx="33" fill="url(#glow)"/><ellipse cx="128" cy="182" rx="76" ry="30" fill="#72e3ff" opacity=".16" filter="url(#soft)"/><g filter="url(#shadow)">
      <circle cx="128" cy="72" r="34" fill="#72e3ff" stroke="#eafdff" stroke-width="8"/><circle cx="82" cy="154" r="34" fill="#f0c15a" stroke="#fff3c4" stroke-width="8"/><circle cx="174" cy="154" r="34" fill="#b98cff" stroke="#f1e8ff" stroke-width="8"/><path d="M111 101 L96 126 M145 101 L160 126 M116 154 H140" stroke="#f6fbff" stroke-width="12" stroke-linecap="round"/><circle cx="128" cy="128" r="13" fill="#ffffff"/><path d="M128 48 V96 M58 154 H106 M150 154 H198" stroke="#ffffff" stroke-width="4" opacity=".65"/>
    </g><path d="M42 34 H177" stroke="#ffffff" stroke-opacity=".13" stroke-width="4" stroke-linecap="round"/><circle cx="213" cy="43" r="4" fill="#caa7ff" opacity=".85"/></svg>