<svg xmlns="http://www.w3.org/2000/svg" viewBox="0 0 256 256" role="img" aria-labelledby="title desc"><title id="title">Drop Turn-In + Quest Pages Auction House guide icon</title><desc id="desc">Fantasy game-style icon for the Drop Turn-In + Quest Pages Auction House guide.</desc><defs><linearGradient id="bg" x1="0" y1="0" x2="1" y2="1"><stop stop-color="#111a25"/><stop offset=".55" stop-color="#0a1119"/><stop offset="1" stop-color="#060a10"/></linearGradient><radialGradient id="glow" cx="50%" cy="42%" r="62%"><stop stop-color="#56d58f" stop-opacity=".35"/><stop offset=".62" stop-color="#f0c15a" stop-opacity=".12"/><stop offset="1" stop-color="#000" stop-opacity="0"/></radialGradient><linearGradient id="rim" x1="0" y1="0" x2="1" y2="1"><stop stop-color="#56d58f"/><stop offset=".55" stop-color="#f0c15a"/><stop offset="1" stop-color="#56d58f"/></linearGradient><filter id="shadow" x="-30%" y="-30%" width="160%" height="160%"><feDropShadow dx="0" dy="8" stdDeviation="7" flood-color="#000" flood-opacity=".7"/></filter><filter id="soft" x="-30%" y="-30%" width="160%" height="160%"><feGaussianBlur stdDeviation="6"/></filter></defs><rect x="7" y="7" width="242" height="242" rx="44" fill="#05080c" stroke="#263342" stroke-width="5"/><rect x="14" y="14" width="228" height="228" rx="38" fill="url(#bg)" stroke="url(#rim)" stroke-width="5"/><rect x="20" y="20" width="216" height="216" rx="33" fill="url(#glow)"/><ellipse cx="128" cy="182" rx="76" ry="30" fill="#56d58f" opacity=".16" filter="url(#soft)"/><g filter="url(#shadow)">
      <path d="M67 57 H158 Q177 57 177 76 V194 H86 Q67 194 67 175 Z" fill="#d8c58f" stroke="#fff2c7" stroke-width="9"/><path d="M67 57 Q83 65 83 82 V194" fill="#a7804b" stroke="#f0d6a7" stroke-width="7"/><path d="M102 91 H150 M102 116 H157 M102 141 H143" stroke="#79572f" stroke-width="7" stroke-linecap="round"/><circle cx="173" cy="159" r="38" fill="#44cb88" stroke="#e7fff4" stroke-width="9"/><path d="M157 159 L170 172 L192 145" fill="none" stroke="#ffffff" stroke-width="10" stroke-linecap="round" stroke-linejoin="round"/>
    </g><path d="M42 34 H177" stroke="#ffffff" stroke-opacity=".13" stroke-width="4" stroke-linecap="round"/><circle cx="213" cy="43" r="4" fill="#f0c15a" opacity=".85"/></svg>