<svg xmlns="http://www.w3.org/2000/svg" viewBox="0 0 256 256" role="img" aria-labelledby="title desc"><title id="title">Enchanting Materials Auction House guide icon</title><desc id="desc">Fantasy game-style icon for the Enchanting Materials Auction House guide.</desc><defs><linearGradient id="bg" x1="0" y1="0" x2="1" y2="1"><stop stop-color="#111a25"/><stop offset=".55" stop-color="#0a1119"/><stop offset="1" stop-color="#060a10"/></linearGradient><radialGradient id="glow" cx="50%" cy="42%" r="62%"><stop stop-color="#9c7dff" stop-opacity=".35"/><stop offset=".62" stop-color="#4ee6ff" stop-opacity=".12"/><stop offset="1" stop-color="#000" stop-opacity="0"/></radialGradient><linearGradient id="rim" x1="0" y1="0" x2="1" y2="1"><stop stop-color="#9c7dff"/><stop offset=".55" stop-color="#4ee6ff"/><stop offset="1" stop-color="#9c7dff"/></linearGradient><filter id="shadow" x="-30%" y="-30%" width="160%" height="160%"><feDropShadow dx="0" dy="8" stdDeviation="7" flood-color="#000" flood-opacity=".7"/></filter><filter id="soft" x="-30%" y="-30%" width="160%" height="160%"><feGaussianBlur stdDeviation="6"/></filter></defs><rect x="7" y="7" width="242" height="242" rx="44" fill="#05080c" stroke="#263342" stroke-width="5"/><rect x="14" y="14" width="228" height="228" rx="38" fill="url(#bg)" stroke="url(#rim)" stroke-width="5"/><rect x="20" y="20" width="216" height="216" rx="33" fill="url(#glow)"/><ellipse cx="128" cy="182" rx="76" ry="30" fill="#9c7dff" opacity=".16" filter="url(#soft)"/><g filter="url(#shadow)">
      <path d="M115 45 L151 57 L143 119 L174 151 L137 211 L95 178 L105 118 L78 91 Z" fill="#7c64ff" stroke="#e9e3ff" stroke-width="9"/><path d="M115 45 L124 121 L95 178 L105 118 Z" fill="#5fe2ff" opacity=".75"/><path d="M151 57 L124 121 L174 151 L143 119 Z" fill="#c69aff" opacity=".8"/><circle cx="66" cy="155" r="6" fill="#72e3ff"/><circle cx="187" cy="98" r="5" fill="#f0c15a"/><path d="M58 83 C83 58 91 48 104 48 M178 183 C195 166 202 149 201 131" fill="none" stroke="#d9faff" stroke-width="6" stroke-linecap="round" stroke-dasharray="2 14"/><path d="M57 154 C82 139 91 128 101 112" fill="none" stroke="#ffffff" stroke-width="5" stroke-linecap="round"/>
    </g><path d="M42 34 H177" stroke="#ffffff" stroke-opacity=".13" stroke-width="4" stroke-linecap="round"/><circle cx="213" cy="43" r="4" fill="#4ee6ff" opacity=".85"/></svg>