<svg xmlns="http://www.w3.org/2000/svg" viewBox="0 0 256 256" role="img" aria-labelledby="title desc"><title id="title">Engineering Auction House guide icon</title><desc id="desc">Fantasy game-style icon for the Engineering Auction House guide.</desc><defs><linearGradient id="bg" x1="0" y1="0" x2="1" y2="1"><stop stop-color="#111a25"/><stop offset=".55" stop-color="#0a1119"/><stop offset="1" stop-color="#060a10"/></linearGradient><radialGradient id="glow" cx="50%" cy="42%" r="62%"><stop stop-color="#72e3ff" stop-opacity=".35"/><stop offset=".62" stop-color="#b58cff" stop-opacity=".12"/><stop offset="1" stop-color="#000" stop-opacity="0"/></radialGradient><linearGradient id="rim" x1="0" y1="0" x2="1" y2="1"><stop stop-color="#72e3ff"/><stop offset=".55" stop-color="#b58cff"/><stop offset="1" stop-color="#72e3ff"/></linearGradient><filter id="shadow" x="-30%" y="-30%" width="160%" height="160%"><feDropShadow dx="0" dy="8" stdDeviation="7" flood-color="#000" flood-opacity=".7"/></filter><filter id="soft" x="-30%" y="-30%" width="160%" height="160%"><feGaussianBlur stdDeviation="6"/></filter></defs><rect x="7" y="7" width="242" height="242" rx="44" fill="#05080c" stroke="#263342" stroke-width="5"/><rect x="14" y="14" width="228" height="228" rx="38" fill="url(#bg)" stroke="url(#rim)" stroke-width="5"/><rect x="20" y="20" width="216" height="216" rx="33" fill="url(#glow)"/><ellipse cx="128" cy="182" rx="76" ry="30" fill="#72e3ff" opacity=".16" filter="url(#soft)"/><g filter="url(#shadow)">
      <circle cx="126" cy="128" r="58" fill="#26394b" stroke="#aeeeff" stroke-width="10"/><circle cx="126" cy="128" r="23" fill="#101b27" stroke="#e8fbff" stroke-width="9"/><g fill="#7bdfff" stroke="#eafcff" stroke-width="5"><path d="M118 52 H134 L141 75 H111 Z"/><path d="M118 181 H134 L141 204 H111 Z" transform="rotate(180 126 192.5)"/><path d="M52 120 V136 L75 143 V113 Z"/><path d="M181 120 V136 L204 143 V113 Z"/><path d="M72 72 L84 60 L105 71 L84 92 Z"/><path d="M168 72 L180 84 L169 105 L148 84 Z"/><path d="M72 184 L84 196 L105 185 L84 164 Z"/><path d="M168 184 L180 172 L169 151 L148 172 Z"/></g><path d="M161 67 Q189 48 207 73 L177 103 L154 80 Z" fill="#dbe7ef" stroke="#ffffff" stroke-width="7"/><path d="M160 93 L109 144" stroke="#bd7d45" stroke-width="14" stroke-linecap="round"/>
    </g><path d="M42 34 H177" stroke="#ffffff" stroke-opacity=".13" stroke-width="4" stroke-linecap="round"/><circle cx="213" cy="43" r="4" fill="#b58cff" opacity=".85"/></svg>