<svg xmlns="http://www.w3.org/2000/svg" viewBox="0 0 256 256" role="img" aria-labelledby="title desc"><title id="title">Fishing + Cooking Auction House guide icon</title><desc id="desc">Fantasy game-style icon for the Fishing + Cooking Auction House guide.</desc><defs><linearGradient id="bg" x1="0" y1="0" x2="1" y2="1"><stop stop-color="#111a25"/><stop offset=".55" stop-color="#0a1119"/><stop offset="1" stop-color="#060a10"/></linearGradient><radialGradient id="glow" cx="50%" cy="42%" r="62%"><stop stop-color="#4cb7e9" stop-opacity=".35"/><stop offset=".62" stop-color="#ffb05d" stop-opacity=".12"/><stop offset="1" stop-color="#000" stop-opacity="0"/></radialGradient><linearGradient id="rim" x1="0" y1="0" x2="1" y2="1"><stop stop-color="#4cb7e9"/><stop offset=".55" stop-color="#ffb05d"/><stop offset="1" stop-color="#4cb7e9"/></linearGradient><filter id="shadow" x="-30%" y="-30%" width="160%" height="160%"><feDropShadow dx="0" dy="8" stdDeviation="7" flood-color="#000" flood-opacity=".7"/></filter><filter id="soft" x="-30%" y="-30%" width="160%" height="160%"><feGaussianBlur stdDeviation="6"/></filter></defs><rect x="7" y="7" width="242" height="242" rx="44" fill="#05080c" stroke="#263342" stroke-width="5"/><rect x="14" y="14" width="228" height="228" rx="38" fill="url(#bg)" stroke="url(#rim)" stroke-width="5"/><rect x="20" y="20" width="216" height="216" rx="33" fill="url(#glow)"/><ellipse cx="128" cy="182" rx="76" ry="30" fill="#4cb7e9" opacity=".16" filter="url(#soft)"/><g filter="url(#shadow)">
      <path d="M49 132 Q87 89 132 113 Q154 79 195 96 Q184 121 158 131 Q184 141 195 166 Q154 183 132 149 Q87 173 49 132 Z" fill="#58bce5" stroke="#eaf9ff" stroke-width="9"/><circle cx="83" cy="125" r="6" fill="#132536"/><path d="M109 132 Q132 117 153 132 Q132 147 109 132 Z" fill="#d6f6ff" opacity=".7"/><path d="M67 187 H167 Q184 187 184 170 V157 H52 V170 Q52 187 67 187 Z" fill="#66514b" stroke="#f1d5ca" stroke-width="8"/><path d="M184 166 H211" stroke="#cf8b4a" stroke-width="13" stroke-linecap="round"/><path d="M85 158 Q88 139 99 129 M123 158 Q126 140 137 130" stroke="#ffb05d" stroke-width="6" stroke-linecap="round" opacity=".8"/>
    </g><path d="M42 34 H177" stroke="#ffffff" stroke-opacity=".13" stroke-width="4" stroke-linecap="round"/><circle cx="213" cy="43" r="4" fill="#ffb05d" opacity=".85"/></svg>