<svg xmlns="http://www.w3.org/2000/svg" viewBox="0 0 256 256" role="img" aria-labelledby="title desc"><title id="title">Gear Pattern Drops Auction House guide icon</title><desc id="desc">Fantasy game-style icon for the Gear Pattern Drops Auction House guide.</desc><defs><linearGradient id="bg" x1="0" y1="0" x2="1" y2="1"><stop stop-color="#111a25"/><stop offset=".55" stop-color="#0a1119"/><stop offset="1" stop-color="#060a10"/></linearGradient><radialGradient id="glow" cx="50%" cy="42%" r="62%"><stop stop-color="#9b7cff" stop-opacity=".35"/><stop offset=".62" stop-color="#72e3ff" stop-opacity=".12"/><stop offset="1" stop-color="#000" stop-opacity="0"/></radialGradient><linearGradient id="rim" x1="0" y1="0" x2="1" y2="1"><stop stop-color="#9b7cff"/><stop offset=".55" stop-color="#72e3ff"/><stop offset="1" stop-color="#9b7cff"/></linearGradient><filter id="shadow" x="-30%" y="-30%" width="160%" height="160%"><feDropShadow dx="0" dy="8" stdDeviation="7" flood-color="#000" flood-opacity=".7"/></filter><filter id="soft" x="-30%" y="-30%" width="160%" height="160%"><feGaussianBlur stdDeviation="6"/></filter></defs><rect x="7" y="7" width="242" height="242" rx="44" fill="#05080c" stroke="#263342" stroke-width="5"/><rect x="14" y="14" width="228" height="228" rx="38" fill="url(#bg)" stroke="url(#rim)" stroke-width="5"/><rect x="20" y="20" width="216" height="216" rx="33" fill="url(#glow)"/><ellipse cx="128" cy="182" rx="76" ry="30" fill="#9b7cff" opacity=".16" filter="url(#soft)"/><g filter="url(#shadow)">
      <path d="M61 61 H191 V193 H61 Z" fill="#2d3a68" stroke="#dfe6ff" stroke-width="9"/><path d="M83 83 H169 V171 H83 Z" fill="none" stroke="#7fbfff" stroke-width="6" stroke-dasharray="8 7"/><path d="M100 109 Q128 84 156 109 L149 153 Q128 169 107 153 Z" fill="#8d9fb5" stroke="#f3f8ff" stroke-width="8"/><path d="M128 96 V153 M108 112 H148" stroke="#dfeaff" stroke-width="6" opacity=".65"/><path d="M172 49 L199 76 L157 118 L130 91 Z" fill="#d8e4eb" stroke="#ffffff" stroke-width="7"/><path d="M132 92 L103 121" stroke="#8a4f2f" stroke-width="15" stroke-linecap="round"/>
    </g><path d="M42 34 H177" stroke="#ffffff" stroke-opacity=".13" stroke-width="4" stroke-linecap="round"/><circle cx="213" cy="43" r="4" fill="#72e3ff" opacity=".85"/></svg>