<svg xmlns="http://www.w3.org/2000/svg" viewBox="0 0 256 256" role="img" aria-labelledby="title desc"><title id="title">Herbalism + Herbs Auction House guide icon</title><desc id="desc">Fantasy game-style icon for the Herbalism + Herbs Auction House guide.</desc><defs><linearGradient id="bg" x1="0" y1="0" x2="1" y2="1"><stop stop-color="#111a25"/><stop offset=".55" stop-color="#0a1119"/><stop offset="1" stop-color="#060a10"/></linearGradient><radialGradient id="glow" cx="50%" cy="42%" r="62%"><stop stop-color="#53d56c" stop-opacity=".35"/><stop offset=".62" stop-color="#f0c15a" stop-opacity=".12"/><stop offset="1" stop-color="#000" stop-opacity="0"/></radialGradient><linearGradient id="rim" x1="0" y1="0" x2="1" y2="1"><stop stop-color="#53d56c"/><stop offset=".55" stop-color="#f0c15a"/><stop offset="1" stop-color="#53d56c"/></linearGradient><filter id="shadow" x="-30%" y="-30%" width="160%" height="160%"><feDropShadow dx="0" dy="8" stdDeviation="7" flood-color="#000" flood-opacity=".7"/></filter><filter id="soft" x="-30%" y="-30%" width="160%" height="160%"><feGaussianBlur stdDeviation="6"/></filter></defs><rect x="7" y="7" width="242" height="242" rx="44" fill="#05080c" stroke="#263342" stroke-width="5"/><rect x="14" y="14" width="228" height="228" rx="38" fill="url(#bg)" stroke="url(#rim)" stroke-width="5"/><rect x="20" y="20" width="216" height="216" rx="33" fill="url(#glow)"/><ellipse cx="128" cy="182" rx="76" ry="30" fill="#53d56c" opacity=".16" filter="url(#soft)"/><g filter="url(#shadow)">
      <path d="M127 204 C124 157 125 111 129 58" stroke="#d8f7c9" stroke-width="10" stroke-linecap="round"/><path d="M124 84 Q83 49 58 83 Q84 120 124 105" fill="#49c75e" stroke="#dfffe2" stroke-width="8"/><path d="M130 104 Q176 61 202 98 Q176 137 130 126" fill="#55df7a" stroke="#e5ffe8" stroke-width="8"/><path d="M124 132 Q82 99 56 135 Q80 172 124 153" fill="#3fb95b" stroke="#dfffe2" stroke-width="8"/><path d="M131 151 Q174 119 199 155 Q174 191 132 174" fill="#69e68a" stroke="#effff0" stroke-width="8"/><circle cx="184" cy="62" r="6" fill="#f0c15a"/><path d="M184 47 V77 M169 62 H199" stroke="#fff2bd" stroke-width="4" stroke-linecap="round"/>
    </g><path d="M42 34 H177" stroke="#ffffff" stroke-opacity=".13" stroke-width="4" stroke-linecap="round"/><circle cx="213" cy="43" r="4" fill="#f0c15a" opacity=".85"/></svg>