<svg xmlns="http://www.w3.org/2000/svg" viewBox="0 0 256 256" role="img" aria-labelledby="title desc"><title id="title">Inscription Materials Auction House guide icon</title><desc id="desc">Fantasy game-style icon for the Inscription Materials Auction House guide.</desc><defs><linearGradient id="bg" x1="0" y1="0" x2="1" y2="1"><stop stop-color="#111a25"/><stop offset=".55" stop-color="#0a1119"/><stop offset="1" stop-color="#060a10"/></linearGradient><radialGradient id="glow" cx="50%" cy="42%" r="62%"><stop stop-color="#b589ff" stop-opacity=".35"/><stop offset=".62" stop-color="#f0c15a" stop-opacity=".12"/><stop offset="1" stop-color="#000" stop-opacity="0"/></radialGradient><linearGradient id="rim" x1="0" y1="0" x2="1" y2="1"><stop stop-color="#b589ff"/><stop offset=".55" stop-color="#f0c15a"/><stop offset="1" stop-color="#b589ff"/></linearGradient><filter id="shadow" x="-30%" y="-30%" width="160%" height="160%"><feDropShadow dx="0" dy="8" stdDeviation="7" flood-color="#000" flood-opacity=".7"/></filter><filter id="soft" x="-30%" y="-30%" width="160%" height="160%"><feGaussianBlur stdDeviation="6"/></filter></defs><rect x="7" y="7" width="242" height="242" rx="44" fill="#05080c" stroke="#263342" stroke-width="5"/><rect x="14" y="14" width="228" height="228" rx="38" fill="url(#bg)" stroke="url(#rim)" stroke-width="5"/><rect x="20" y="20" width="216" height="216" rx="33" fill="url(#glow)"/><ellipse cx="128" cy="182" rx="76" ry="30" fill="#b589ff" opacity=".16" filter="url(#soft)"/><g filter="url(#shadow)">
      <path d="M64 61 H164 Q179 61 179 76 V190 Q168 181 151 181 H64 Z" fill="#e3d2a5" stroke="#fff6d6" stroke-width="9"/><path d="M64 61 Q79 69 79 84 V196 Q67 188 55 188 V74 Q55 65 64 61 Z" fill="#b38f5a" stroke="#f5dfb2" stroke-width="7"/><path d="M100 97 H151 M100 120 H157 M100 143 H145" stroke="#7a5835" stroke-width="7" stroke-linecap="round"/><path d="M180 51 Q205 72 179 116 L152 163 L139 160 L145 146 L173 103 Q185 83 167 67 Z" fill="#c09cff" stroke="#f2e7ff" stroke-width="7"/><path d="M139 160 L130 180 L151 166" fill="#f0c15a" stroke="#fff1bd" stroke-width="5"/>
    </g><path d="M42 34 H177" stroke="#ffffff" stroke-opacity=".13" stroke-width="4" stroke-linecap="round"/><circle cx="213" cy="43" r="4" fill="#f0c15a" opacity=".85"/></svg>