<svg xmlns="http://www.w3.org/2000/svg" viewBox="0 0 256 256" role="img" aria-labelledby="title desc"><title id="title">Jewelcrafting + Gems Auction House guide icon</title><desc id="desc">Fantasy game-style icon for the Jewelcrafting + Gems Auction House guide.</desc><defs><linearGradient id="bg" x1="0" y1="0" x2="1" y2="1"><stop stop-color="#111a25"/><stop offset=".55" stop-color="#0a1119"/><stop offset="1" stop-color="#060a10"/></linearGradient><radialGradient id="glow" cx="50%" cy="42%" r="62%"><stop stop-color="#a335ee" stop-opacity=".35"/><stop offset=".62" stop-color="#72e3ff" stop-opacity=".12"/><stop offset="1" stop-color="#000" stop-opacity="0"/></radialGradient><linearGradient id="rim" x1="0" y1="0" x2="1" y2="1"><stop stop-color="#a335ee"/><stop offset=".55" stop-color="#72e3ff"/><stop offset="1" stop-color="#a335ee"/></linearGradient><filter id="shadow" x="-30%" y="-30%" width="160%" height="160%"><feDropShadow dx="0" dy="8" stdDeviation="7" flood-color="#000" flood-opacity=".7"/></filter><filter id="soft" x="-30%" y="-30%" width="160%" height="160%"><feGaussianBlur stdDeviation="6"/></filter></defs><rect x="7" y="7" width="242" height="242" rx="44" fill="#05080c" stroke="#263342" stroke-width="5"/><rect x="14" y="14" width="228" height="228" rx="38" fill="url(#bg)" stroke="url(#rim)" stroke-width="5"/><rect x="20" y="20" width="216" height="216" rx="33" fill="url(#glow)"/><ellipse cx="128" cy="182" rx="76" ry="30" fill="#a335ee" opacity=".16" filter="url(#soft)"/><g filter="url(#shadow)">
      <path d="M128 45 L190 94 L167 180 L128 211 L89 180 L66 94 Z" fill="#7b2ed3" stroke="#f4dcff" stroke-width="9"/><path d="M128 45 L145 94 L128 211 L111 94 Z" fill="#a95cff" opacity=".85"/><path d="M66 94 H190 L167 180 H89 Z" fill="#4b8dff" opacity=".65"/><path d="M66 94 L111 94 L89 180 Z M190 94 L145 94 L167 180 Z" fill="#7de7ff" opacity=".55"/><path d="M128 45 L111 94 H145 Z" fill="#e8faff" opacity=".75"/><circle cx="177" cy="62" r="6" fill="#ffffff"/><path d="M177 45 V79 M160 62 H194" stroke="#ffffff" stroke-width="5" stroke-linecap="round"/>
    </g><path d="M42 34 H177" stroke="#ffffff" stroke-opacity=".13" stroke-width="4" stroke-linecap="round"/><circle cx="213" cy="43" r="4" fill="#72e3ff" opacity=".85"/></svg>