<svg xmlns="http://www.w3.org/2000/svg" viewBox="0 0 256 256" role="img" aria-labelledby="title desc"><title id="title">Mining + Smithing Auction House guide icon</title><desc id="desc">Fantasy game-style icon for the Mining + Smithing Auction House guide.</desc><defs><linearGradient id="bg" x1="0" y1="0" x2="1" y2="1"><stop stop-color="#111a25"/><stop offset=".55" stop-color="#0a1119"/><stop offset="1" stop-color="#060a10"/></linearGradient><radialGradient id="glow" cx="50%" cy="42%" r="62%"><stop stop-color="#f0c15a" stop-opacity=".35"/><stop offset=".62" stop-color="#72e3ff" stop-opacity=".12"/><stop offset="1" stop-color="#000" stop-opacity="0"/></radialGradient><linearGradient id="rim" x1="0" y1="0" x2="1" y2="1"><stop stop-color="#f0c15a"/><stop offset=".55" stop-color="#72e3ff"/><stop offset="1" stop-color="#f0c15a"/></linearGradient><filter id="shadow" x="-30%" y="-30%" width="160%" height="160%"><feDropShadow dx="0" dy="8" stdDeviation="7" flood-color="#000" flood-opacity=".7"/></filter><filter id="soft" x="-30%" y="-30%" width="160%" height="160%"><feGaussianBlur stdDeviation="6"/></filter></defs><rect x="7" y="7" width="242" height="242" rx="44" fill="#05080c" stroke="#263342" stroke-width="5"/><rect x="14" y="14" width="228" height="228" rx="38" fill="url(#bg)" stroke="url(#rim)" stroke-width="5"/><rect x="20" y="20" width="216" height="216" rx="33" fill="url(#glow)"/><ellipse cx="128" cy="182" rx="76" ry="30" fill="#f0c15a" opacity=".16" filter="url(#soft)"/><g filter="url(#shadow)">
      <g fill="none" stroke="#f8fbff" stroke-width="13" stroke-linecap="round" stroke-linejoin="round"><path d="M69 69 L176 176"/><path d="M64 77 L88 53 L103 68 L79 92 Z" fill="#d8ecff" stroke="#f8fbff"/><path d="M177 63 L193 79 L173 99 L157 83 Z" fill="#ffd56f"/><path d="M188 68 L204 52"/><path d="M168 88 L152 104"/></g><path d="M69 181 L181 69" stroke="#2a1b11" stroke-width="25" stroke-linecap="round"/><path d="M69 181 L181 69" stroke="#d18b42" stroke-width="15" stroke-linecap="round"/><path d="M153 58 Q185 48 205 69 Q182 95 151 86" fill="#9aa9b6" stroke="#eef7ff" stroke-width="8"/>
    </g><path d="M42 34 H177" stroke="#ffffff" stroke-opacity=".13" stroke-width="4" stroke-linecap="round"/><circle cx="213" cy="43" r="4" fill="#72e3ff" opacity=".85"/></svg>