<svg xmlns="http://www.w3.org/2000/svg" viewBox="0 0 256 256" role="img" aria-labelledby="title desc"><title id="title">Skinning + Leatherworking Auction House guide icon</title><desc id="desc">Fantasy game-style icon for the Skinning + Leatherworking Auction House guide.</desc><defs><linearGradient id="bg" x1="0" y1="0" x2="1" y2="1"><stop stop-color="#111a25"/><stop offset=".55" stop-color="#0a1119"/><stop offset="1" stop-color="#060a10"/></linearGradient><radialGradient id="glow" cx="50%" cy="42%" r="62%"><stop stop-color="#d08b4f" stop-opacity=".35"/><stop offset=".62" stop-color="#f0c15a" stop-opacity=".12"/><stop offset="1" stop-color="#000" stop-opacity="0"/></radialGradient><linearGradient id="rim" x1="0" y1="0" x2="1" y2="1"><stop stop-color="#d08b4f"/><stop offset=".55" stop-color="#f0c15a"/><stop offset="1" stop-color="#d08b4f"/></linearGradient><filter id="shadow" x="-30%" y="-30%" width="160%" height="160%"><feDropShadow dx="0" dy="8" stdDeviation="7" flood-color="#000" flood-opacity=".7"/></filter><filter id="soft" x="-30%" y="-30%" width="160%" height="160%"><feGaussianBlur stdDeviation="6"/></filter></defs><rect x="7" y="7" width="242" height="242" rx="44" fill="#05080c" stroke="#263342" stroke-width="5"/><rect x="14" y="14" width="228" height="228" rx="38" fill="url(#bg)" stroke="url(#rim)" stroke-width="5"/><rect x="20" y="20" width="216" height="216" rx="33" fill="url(#glow)"/><ellipse cx="128" cy="182" rx="76" ry="30" fill="#d08b4f" opacity=".16" filter="url(#soft)"/><g filter="url(#shadow)">
      <path d="M82 55 Q109 72 128 55 Q147 72 174 55 L192 91 Q172 107 183 132 Q194 157 171 197 Q146 181 128 201 Q110 181 85 197 Q62 157 73 132 Q84 107 64 91 Z" fill="#9b5d2f" stroke="#f3d7b6" stroke-width="9"/><path d="M95 84 Q128 104 161 84 M91 128 Q128 147 165 128 M101 169 Q128 154 155 169" fill="none" stroke="#dca06d" stroke-width="7" opacity=".75"/><path d="M184 61 L204 81 L151 134 L131 114 Z" fill="#d7e2e8" stroke="#ffffff" stroke-width="7"/><path d="M132 115 L105 142" stroke="#6f3d21" stroke-width="15" stroke-linecap="round"/>
    </g><path d="M42 34 H177" stroke="#ffffff" stroke-opacity=".13" stroke-width="4" stroke-linecap="round"/><circle cx="213" cy="43" r="4" fill="#f0c15a" opacity=".85"/></svg>