<svg xmlns="http://www.w3.org/2000/svg" viewBox="0 0 256 256" role="img" aria-labelledby="title desc"><title id="title">Tailoring + Cloth Auction House guide icon</title><desc id="desc">Fantasy game-style icon for the Tailoring + Cloth Auction House guide.</desc><defs><linearGradient id="bg" x1="0" y1="0" x2="1" y2="1"><stop stop-color="#111a25"/><stop offset=".55" stop-color="#0a1119"/><stop offset="1" stop-color="#060a10"/></linearGradient><radialGradient id="glow" cx="50%" cy="42%" r="62%"><stop stop-color="#7d8dff" stop-opacity=".35"/><stop offset=".62" stop-color="#d7b8ff" stop-opacity=".12"/><stop offset="1" stop-color="#000" stop-opacity="0"/></radialGradient><linearGradient id="rim" x1="0" y1="0" x2="1" y2="1"><stop stop-color="#7d8dff"/><stop offset=".55" stop-color="#d7b8ff"/><stop offset="1" stop-color="#7d8dff"/></linearGradient><filter id="shadow" x="-30%" y="-30%" width="160%" height="160%"><feDropShadow dx="0" dy="8" stdDeviation="7" flood-color="#000" flood-opacity=".7"/></filter><filter id="soft" x="-30%" y="-30%" width="160%" height="160%"><feGaussianBlur stdDeviation="6"/></filter></defs><rect x="7" y="7" width="242" height="242" rx="44" fill="#05080c" stroke="#263342" stroke-width="5"/><rect x="14" y="14" width="228" height="228" rx="38" fill="url(#bg)" stroke="url(#rim)" stroke-width="5"/><rect x="20" y="20" width="216" height="216" rx="33" fill="url(#glow)"/><ellipse cx="128" cy="182" rx="76" ry="30" fill="#7d8dff" opacity=".16" filter="url(#soft)"/><g filter="url(#shadow)">
      <path d="M70 84 Q128 50 186 84 L174 172 Q128 201 82 172 Z" fill="#6f7ee8" stroke="#e8ecff" stroke-width="9"/><path d="M82 105 Q128 82 174 105 M86 132 Q128 112 170 132 M91 157 Q128 141 165 157" fill="none" stroke="#c7ceff" stroke-width="7" opacity=".75"/><circle cx="72" cy="181" r="24" fill="#b48cff" stroke="#f1e7ff" stroke-width="8"/><circle cx="72" cy="181" r="9" fill="#1b2440"/><path d="M94 179 C125 168 153 157 187 113" fill="none" stroke="#fff" stroke-width="5" stroke-linecap="round"/><path d="M186 113 L198 76" stroke="#cbd6df" stroke-width="8" stroke-linecap="round"/>
    </g><path d="M42 34 H177" stroke="#ffffff" stroke-opacity=".13" stroke-width="4" stroke-linecap="round"/><circle cx="213" cy="43" r="4" fill="#d7b8ff" opacity=".85"/></svg>