<svg xmlns="http://www.w3.org/2000/svg" viewBox="0 0 256 256" role="img" aria-labelledby="title desc"><title id="title">Utility Recipe Drops Auction House guide icon</title><desc id="desc">Fantasy game-style icon for the Utility Recipe Drops Auction House guide.</desc><defs><linearGradient id="bg" x1="0" y1="0" x2="1" y2="1"><stop stop-color="#111a25"/><stop offset=".55" stop-color="#0a1119"/><stop offset="1" stop-color="#060a10"/></linearGradient><radialGradient id="glow" cx="50%" cy="42%" r="62%"><stop stop-color="#72e3ff" stop-opacity=".35"/><stop offset=".62" stop-color="#f0c15a" stop-opacity=".12"/><stop offset="1" stop-color="#000" stop-opacity="0"/></radialGradient><linearGradient id="rim" x1="0" y1="0" x2="1" y2="1"><stop stop-color="#72e3ff"/><stop offset=".55" stop-color="#f0c15a"/><stop offset="1" stop-color="#72e3ff"/></linearGradient><filter id="shadow" x="-30%" y="-30%" width="160%" height="160%"><feDropShadow dx="0" dy="8" stdDeviation="7" flood-color="#000" flood-opacity=".7"/></filter><filter id="soft" x="-30%" y="-30%" width="160%" height="160%"><feGaussianBlur stdDeviation="6"/></filter></defs><rect x="7" y="7" width="242" height="242" rx="44" fill="#05080c" stroke="#263342" stroke-width="5"/><rect x="14" y="14" width="228" height="228" rx="38" fill="url(#bg)" stroke="url(#rim)" stroke-width="5"/><rect x="20" y="20" width="216" height="216" rx="33" fill="url(#glow)"/><ellipse cx="128" cy="182" rx="76" ry="30" fill="#72e3ff" opacity=".16" filter="url(#soft)"/><g filter="url(#shadow)">
      <path d="M61 58 H164 Q182 58 182 76 V194 H61 Z" fill="#d7c690" stroke="#fff2c8" stroke-width="9"/><path d="M84 84 H157 M84 109 H145 M84 134 H154" stroke="#775a35" stroke-width="7" stroke-linecap="round"/><circle cx="162" cy="160" r="38" fill="#2a4052" stroke="#c9f4ff" stroke-width="8"/><circle cx="162" cy="160" r="14" fill="#101b25" stroke="#ffffff" stroke-width="7"/><g fill="#72e3ff"><rect x="156" y="111" width="12" height="18" rx="3"/><rect x="156" y="191" width="12" height="18" rx="3"/><rect x="113" y="154" width="18" height="12" rx="3"/><rect x="193" y="154" width="18" height="12" rx="3"/></g>
    </g><path d="M42 34 H177" stroke="#ffffff" stroke-opacity=".13" stroke-width="4" stroke-linecap="round"/><circle cx="213" cy="43" r="4" fill="#f0c15a" opacity=".85"/></svg>